<svg id="Layer_1" xmlns="http://www.w3.org/2000/svg" viewBox="0 0 432 202.27"><defs><style>.cls-1{fill:#0f1749;}.cls-2{fill:#1ed2d1;}.cls-3{fill:#213bde;}</style></defs><g><path class="cls-1" d="M248.51,83.39h2.33c-.76,3.85-3.76,6.46-7.76,6.46-4.66,0-8.42-3.7-8.42-8.63s3.76-8.62,8.42-8.62c4,0,7,2.61,7.76,6.46h-2.33c-.67-2.61-2.64-4.21-5.43-4.21-3.47,0-6.14,2.68-6.14,6.38s2.66,6.39,6.14,6.39c2.79,0,4.76-1.61,5.43-4.22"/><path class="cls-1" d="M268.27,81.22c0-3.53-2.66-6.46-6.12-6.46s-6.14,2.92-6.14,6.46,2.67,6.46,6.14,6.46,6.12-2.93,6.12-6.46m2.31,0c0,4.78-3.76,8.63-8.42,8.63s-8.42-3.85-8.42-8.63,3.76-8.62,8.42-8.62,8.42,3.85,8.42,8.62"/><polygon class="cls-1" points="285.37 89.51 274.33 89.51 274.33 72.94 276.6 72.94 276.6 87.41 285.37 87.41 285.37 89.51"/><polygon class="cls-1" points="299.28 89.51 288.24 89.51 288.24 72.94 290.49 72.94 290.49 87.41 299.28 87.41 299.28 89.51"/><polygon class="cls-1" points="304.4 80.23 312.68 80.23 312.68 82.37 304.4 82.37 304.4 87.37 313.63 87.37 313.63 89.51 302.13 89.51 302.13 72.94 313.63 72.94 313.63 75.08 304.4 75.08 304.4 80.23"/><path class="cls-1" d="M332.48,89.51h-1.81l-.17-3.04c-1.14,2.07-3.14,3.39-5.97,3.39-4.8,0-8.37-3.85-8.37-8.48,0-5.07,3.78-8.77,8.49-8.77,3.5,0,6.8,2.07,7.73,5.92h-2.42c-.83-2.63-3.16-3.68-5.28-3.68-3.52,0-6.23,2.65-6.23,6.53,0,3.39,2.5,6.24,6.09,6.24,3.05,0,5-2.05,5.52-4.82h-5.68v-2.14h8.11v8.87Z"/><polygon class="cls-1" points="339.14 80.23 347.42 80.23 347.42 82.37 339.14 82.37 339.14 87.37 348.38 87.37 348.38 89.51 336.88 89.51 336.88 72.94 348.38 72.94 348.38 75.08 339.14 75.08 339.14 80.23"/><path class="cls-1" d="M372.28,81.22c0-3.53-2.66-6.46-6.12-6.46s-6.14,2.92-6.14,6.46,2.67,6.46,6.14,6.46,6.12-2.93,6.12-6.46m2.31,0c0,4.78-3.76,8.63-8.42,8.63s-8.42-3.85-8.42-8.63,3.76-8.62,8.42-8.62,8.42,3.85,8.42,8.62"/><polygon class="cls-1" points="380.61 80.66 388.62 80.66 388.62 82.81 380.61 82.81 380.61 89.51 378.34 89.51 378.34 72.94 389.65 72.94 389.65 75.08 380.61 75.08 380.61 80.66"/><path class="cls-1" d="M241.04,109.47c2.48,0,4.14-1.49,4.14-3.68,0-2.07-1.66-3.46-4.14-3.46h-3.52v7.14h3.52Zm.07-9.28c3.78,0,6.3,2.24,6.3,5.6s-2.64,5.83-6.59,5.83h-3.31v5.14h-2.26v-16.57h5.85Z"/><polygon class="cls-1" points="263.94 116.76 261.66 116.76 261.66 109.66 252.74 109.66 252.74 116.76 250.48 116.76 250.48 100.19 252.74 100.19 252.74 107.52 261.66 107.52 261.66 100.19 263.94 100.19 263.94 116.76"/><polygon class="cls-1" points="275.54 111.01 275.54 116.76 273.23 116.76 273.23 111.01 266.64 100.19 269.16 100.19 274.38 108.76 279.61 100.19 282.13 100.19 275.54 111.01"/><path class="cls-1" d="M296.31,104.89h-2.26c-.31-1.85-1.57-3.07-4.04-3.07-2.19,0-3.64,1.07-3.64,2.78,0,1.39,1.07,2.17,2.98,2.53l2.26,.46c2.98,.58,4.66,1.9,4.66,4.41,0,3.07-2.45,5.09-6.14,5.09-3.92,0-6.52-2.12-6.85-5.7h2.26c.36,2.26,2,3.63,4.71,3.63,2.28,0,3.69-1.07,3.69-2.73,0-1.15-.74-2.1-2.71-2.46l-2.74-.54c-3.05-.59-4.52-2.17-4.52-4.53,0-2.95,2.35-4.95,5.9-4.95,3.07,0,6.05,1.41,6.45,5.07"/><rect class="cls-1" x="300.23" y="100.19" width="2.26" height="16.57"/><path class="cls-1" d="M320.08,110.64h2.33c-.76,3.85-3.76,6.46-7.75,6.46-4.66,0-8.42-3.7-8.42-8.63s3.76-8.62,8.42-8.62c3.99,0,6.99,2.61,7.75,6.46h-2.33c-.67-2.61-2.64-4.21-5.42-4.21-3.47,0-6.14,2.68-6.14,6.38s2.67,6.39,6.14,6.39c2.78,0,4.76-1.61,5.42-4.22"/><rect class="cls-1" x="326.15" y="100.19" width="2.26" height="16.57"/><path class="cls-1" d="M339.51,102.89l-3.14,7.46h6.28l-3.14-7.46Zm-4.05,9.6l-1.81,4.26h-2.42l7.21-16.67h2.14l7.21,16.67h-2.43l-1.81-4.26h-8.09Z"/><polygon class="cls-1" points="364.67 116.76 362.81 116.76 352.91 104.47 352.91 116.76 350.65 116.76 350.65 100.19 352.44 100.19 362.38 112.66 362.38 100.19 364.67 100.19 364.67 116.76"/><path class="cls-1" d="M381.38,104.89h-2.26c-.31-1.85-1.57-3.07-4.04-3.07-2.19,0-3.64,1.07-3.64,2.78,0,1.39,1.07,2.17,2.97,2.53l2.26,.46c2.98,.58,4.66,1.9,4.66,4.41,0,3.07-2.45,5.09-6.14,5.09-3.92,0-6.52-2.12-6.85-5.7h2.26c.36,2.26,2,3.63,4.71,3.63,2.28,0,3.69-1.07,3.69-2.73,0-1.15-.74-2.1-2.71-2.46l-2.74-.54c-3.04-.59-4.52-2.17-4.52-4.53,0-2.95,2.36-4.95,5.9-4.95,3.07,0,6.04,1.41,6.45,5.07"/><path class="cls-1" d="M242.11,130.14l-3.14,7.46h6.28l-3.14-7.46Zm-4.05,9.6l-1.81,4.26h-2.42l7.21-16.67h2.14l7.21,16.67h-2.43l-1.81-4.26h-8.09Z"/><polygon class="cls-1" points="267.27 144 265.41 144 255.51 131.72 255.51 144 253.25 144 253.25 127.43 255.04 127.43 264.98 139.91 264.98 127.43 267.27 127.43 267.27 144"/><path class="cls-1" d="M277.68,141.86c3.6,0,6.23-2.63,6.23-6.24s-2.64-6.04-6.23-6.04h-3.59v12.28h3.59Zm0-14.42c4.97,0,8.57,3.43,8.57,8.19s-3.59,8.38-8.57,8.38h-5.85v-16.57h5.85Z"/><path class="cls-1" d="M308.47,132.13h-2.26c-.31-1.85-1.57-3.07-4.04-3.07-2.19,0-3.64,1.07-3.64,2.78,0,1.39,1.07,2.17,2.98,2.53l2.26,.46c2.98,.58,4.66,1.9,4.66,4.41,0,3.07-2.45,5.09-6.14,5.09-3.92,0-6.52-2.12-6.85-5.7h2.26c.36,2.27,2,3.63,4.71,3.63,2.28,0,3.69-1.07,3.69-2.73,0-1.15-.74-2.1-2.71-2.46l-2.74-.54c-3.05-.59-4.52-2.17-4.52-4.53,0-2.95,2.35-4.95,5.9-4.95,3.07,0,6.05,1.41,6.45,5.07"/><path class="cls-1" d="M326.08,136.81c0,4.53-2.81,7.55-7.02,7.55s-7.02-3.02-7.02-7.55v-9.38h2.26v9.38c0,3.12,1.9,5.39,4.76,5.39s4.76-2.27,4.76-5.39v-9.38h2.26v9.38Z"/><path class="cls-1" d="M336.73,136.13c2.31,0,4.05-1.24,4.05-3.29s-1.74-3.26-4.05-3.26h-4v6.55h4Zm-4,2.14v5.73h-2.26v-16.57h6.33c3.64,0,6.21,2.1,6.21,5.41,0,2.63-1.59,4.48-4.07,5.17l4.9,5.99h-2.78l-4.71-5.73h-3.61Z"/><path class="cls-1" d="M362.25,144h-1.81l-.17-3.04c-1.14,2.07-3.14,3.39-5.97,3.39-4.8,0-8.38-3.85-8.38-8.48,0-5.07,3.78-8.77,8.5-8.77,3.5,0,6.8,2.07,7.73,5.92h-2.43c-.83-2.63-3.16-3.68-5.28-3.68-3.52,0-6.24,2.65-6.24,6.53,0,3.39,2.5,6.24,6.09,6.24,3.05,0,5-2.05,5.52-4.82h-5.69v-2.14h8.12v8.87Z"/><polygon class="cls-1" points="368.92 134.72 377.19 134.72 377.19 136.86 368.92 136.86 368.92 141.86 378.15 141.86 378.15 144 366.65 144 366.65 127.43 378.15 127.43 378.15 129.58 368.92 129.58 368.92 134.72"/><path class="cls-1" d="M395.21,135.71c0-3.53-2.66-6.46-6.11-6.46s-6.14,2.92-6.14,6.46,2.67,6.46,6.14,6.46,6.11-2.92,6.11-6.46m2.31,0c0,4.78-3.76,8.63-8.42,8.63s-8.42-3.85-8.42-8.63,3.76-8.62,8.42-8.62,8.42,3.85,8.42,8.62"/><polygon class="cls-1" points="415.29 144 413.43 144 403.54 131.72 403.54 144 401.28 144 401.28 127.43 403.06 127.43 413.01 139.91 413.01 127.43 415.29 127.43 415.29 144"/><path class="cls-1" d="M432,132.13h-2.26c-.31-1.85-1.57-3.07-4.04-3.07-2.19,0-3.64,1.07-3.64,2.78,0,1.39,1.07,2.17,2.98,2.53l2.26,.46c2.98,.58,4.66,1.9,4.66,4.41,0,3.07-2.45,5.09-6.14,5.09-3.92,0-6.52-2.12-6.85-5.7h2.26c.36,2.27,2,3.63,4.71,3.63,2.28,0,3.69-1.07,3.69-2.73,0-1.15-.74-2.1-2.71-2.46l-2.74-.54c-3.05-.59-4.52-2.17-4.52-4.53,0-2.95,2.36-4.95,5.9-4.95,3.07,0,6.05,1.41,6.45,5.07"/><path class="cls-1" d="M249.2,162.96c0-3.53-2.66-6.46-6.12-6.46s-6.14,2.92-6.14,6.46,2.66,6.46,6.14,6.46,6.12-2.92,6.12-6.46m2.31,0c0,4.78-3.76,8.63-8.42,8.63s-8.42-3.85-8.42-8.63,3.76-8.62,8.42-8.62,8.42,3.85,8.42,8.62"/><polygon class="cls-1" points="257.52 162.4 265.54 162.4 265.54 164.55 257.52 164.55 257.52 171.25 255.26 171.25 255.26 154.68 266.56 154.68 266.56 156.82 257.52 156.82 257.52 162.4"/><path class="cls-1" d="M283.26,169.2c2.4,0,3.74-1.19,3.74-2.75s-1.38-2.49-3.67-2.49h-5.14v5.24h5.07Zm-5.07-7.31h4.52c2.31,0,3.57-1.02,3.57-2.68,0-1.54-1.24-2.49-3.4-2.49h-4.69v5.17Zm11.04,4.83c0,2.7-2.28,4.53-5.88,4.53h-7.42v-16.57h7.19c3.31,0,5.33,1.63,5.33,4.24,0,1.75-.95,3.22-2.57,3.75,2.26,.44,3.36,2.05,3.36,4.05"/><path class="cls-1" d="M299.25,163.37c2.31,0,4.04-1.24,4.04-3.29s-1.74-3.26-4.04-3.26h-4v6.55h4Zm-4,2.15v5.73h-2.26v-16.57h6.33c3.64,0,6.21,2.1,6.21,5.41,0,2.63-1.59,4.48-4.07,5.17l4.9,5.99h-2.78l-4.71-5.73h-3.62Z"/><rect class="cls-1" x="309.46" y="154.68" width="2.26" height="16.57"/><polygon class="cls-1" points="322.64 156.82 322.64 171.25 320.38 171.25 320.38 156.82 314.55 156.82 314.55 154.68 328.47 154.68 328.47 156.82 322.64 156.82"/><rect class="cls-1" x="331.34" y="154.68" width="2.26" height="16.57"/><path class="cls-1" d="M350.31,159.38h-2.26c-.31-1.85-1.57-3.07-4.04-3.07-2.19,0-3.64,1.07-3.64,2.78,0,1.39,1.07,2.17,2.97,2.53l2.26,.46c2.98,.59,4.66,1.9,4.66,4.41,0,3.07-2.45,5.09-6.14,5.09-3.92,0-6.52-2.12-6.85-5.7h2.26c.36,2.27,2,3.63,4.71,3.63,2.28,0,3.69-1.07,3.69-2.73,0-1.15-.74-2.1-2.71-2.46l-2.74-.54c-3.05-.58-4.52-2.17-4.52-4.53,0-2.95,2.36-4.95,5.9-4.95,3.07,0,6.04,1.41,6.45,5.07"/><polygon class="cls-1" points="367.66 171.25 365.38 171.25 365.38 164.15 356.45 164.15 356.45 171.25 354.19 171.25 354.19 154.68 356.45 154.68 356.45 162.01 365.38 162.01 365.38 154.68 367.66 154.68 367.66 171.25"/><path class="cls-1" d="M248.51,192.37h2.33c-.76,3.85-3.76,6.46-7.75,6.46-4.66,0-8.42-3.7-8.43-8.63,0-4.92,3.76-8.62,8.42-8.62,4,0,7,2.61,7.76,6.46h-2.33c-.67-2.61-2.64-4.21-5.43-4.21-3.47,0-6.14,2.68-6.14,6.38,0,3.7,2.67,6.38,6.14,6.38,2.78,0,4.76-1.61,5.42-4.22"/><path class="cls-1" d="M268.28,190.21c0-3.53-2.66-6.46-6.12-6.46s-6.14,2.92-6.14,6.46c0,3.53,2.67,6.46,6.14,6.46s6.11-2.93,6.11-6.46m2.31,0c0,4.78-3.76,8.63-8.42,8.63s-8.42-3.85-8.43-8.63c0-4.78,3.76-8.63,8.42-8.63s8.42,3.85,8.42,8.63"/><polygon class="cls-1" points="285.38 198.49 274.34 198.49 274.34 181.92 276.6 181.92 276.6 196.39 285.38 196.39 285.38 198.49"/><path class="cls-1" d="M301.47,191.3c0,4.53-2.81,7.55-7.02,7.55s-7.02-3.02-7.02-7.55v-9.38h2.26v9.38c0,3.12,1.91,5.39,4.76,5.39s4.76-2.27,4.76-5.39v-9.38h2.26v9.38Z"/><polygon class="cls-1" points="321.97 198.49 319.68 198.49 319.68 187.06 314.64 195.54 313.19 195.54 308.09 186.99 308.14 198.49 305.86 198.49 305.86 181.92 307.52 181.92 313.9 192.67 320.28 181.92 321.96 181.92 321.97 198.49"/><path class="cls-1" d="M333.87,196.44c2.4,0,3.74-1.19,3.74-2.75,0-1.61-1.38-2.49-3.67-2.49h-5.14v5.24h5.07Zm-5.07-7.31h4.52c2.31,0,3.57-1.02,3.57-2.68,0-1.54-1.24-2.49-3.4-2.49h-4.69v5.17Zm11.04,4.82c0,2.7-2.28,4.53-5.88,4.53h-7.42v-16.57h7.18c3.31,0,5.33,1.63,5.33,4.24,0,1.75-.95,3.22-2.57,3.75,2.26,.44,3.35,2.05,3.36,4.05"/><rect class="cls-1" x="343.63" y="181.92" width="2.26" height="16.57"/><path class="cls-1" d="M356.98,184.63l-3.14,7.46h6.28l-3.14-7.46Zm-4.04,9.6l-1.81,4.26h-2.43l7.21-16.67h2.14l7.21,16.67h-2.43l-1.81-4.26h-8.09Z"/></g><g><path class="cls-1" d="M79.56,103.97h16.12c-2.04,16.31-14.45,27.42-31.59,27.42-18.99,0-33.35-13.81-33.35-32.8s14.36-32.8,33.35-32.8c17.14,0,29.55,11.12,31.59,27.42h-16.12c-1.67-7.87-7.22-12.78-15.56-12.78-10.28,0-17.42,7.69-17.42,18.16s7.13,18.16,17.42,18.16c8.34,0,13.9-4.91,15.56-12.78"/><path class="cls-1" d="M126.16,100.35c6.86,0,11.4-3.98,11.4-10.19,0-5.65-4.54-9.26-11.4-9.26h-10.49v19.46h10.49Zm.28-33.26c16.49,0,26.68,8.89,26.68,23.07s-10.75,23.9-27.89,23.9h-9.56v16.03h-15.66v-63h26.42Z"/><path class="cls-1" d="M211.99,86.64h-16.35c-.86-4.72-3.94-7.97-10.58-7.97-5.58,0-9.33,2.22-9.33,6.3,0,3.43,2.6,4.91,7.5,5.93l9.14,2.04c11.93,2.5,19.71,7.13,19.71,17.97,0,12.6-10.77,20.47-27.12,20.47-14.71,0-27.99-6.67-29.52-22.24h16.25c1.06,5.56,6.06,8.89,13.75,8.89,6.06,0,9.23-2.13,9.23-5.56,0-2.13-1.35-4.35-6.92-5.37l-10.77-2.32c-12.89-2.69-18.95-8.52-18.95-18.53,0-12.6,10.58-20.57,25.97-20.57,10.58,0,26.35,3.98,27.99,20.94"/><path class="cls-1" d="M127.17,188.01c6.49,0,9.36-2.87,9.36-6.58,0-3.89-3.24-5.84-8.99-5.84h-11.99v12.41h11.62Zm-11.62-24.36h9.39c5.93,0,9.17-2.69,9.17-6.76s-3.15-6.11-9.17-6.11h-9.39v12.88Zm36.26,19.83c0,10.47-8.43,17.51-22.51,17.51h-29.41v-63h27.55c13.62,0,21.59,6.49,21.59,16.77,0,5.84-3.24,11.86-8.71,13.8,7.69,1.67,11.49,8.15,11.49,14.92"/><path class="cls-1" d="M202.05,174.85h16.12c-2.04,16.31-14.45,27.42-31.59,27.42-18.99,0-33.35-13.8-33.35-32.8s14.36-32.8,33.35-32.8c17.14,0,29.55,11.12,31.59,27.42h-16.12c-1.67-7.88-7.23-12.79-15.56-12.79-10.28,0-17.42,7.69-17.42,18.16s7.13,18.16,17.42,18.16c8.34,0,13.9-4.91,15.56-12.78"/></g><path class="cls-3" d="M24.5,41.11C10,50.09,2.34,63.7,0,69.88c2.56,1.71,16.19,9.59,20.03,11.72,7.64-18.9,24.43-29.56,43.08-29.19-7.69-.33-21.85-1.73-38.07-11.6-.18,.11-.35,.2-.53,.31"/><path class="cls-2" d="M20.03,0C16.19,2.13,2.56,10.02,0,11.72c2.34,6.18,10,19.79,24.5,28.76,.18,.11,.35,.21,.53,.32,16.22-9.88,30.38-11.27,38.07-11.6-.31,0-.61,0-.92,0C43.91,29.2,27.55,18.59,20.03,0"/><path class="cls-1" d="M63.11,29.2c-7.69,.33-21.85,1.73-38.07,11.6,16.22,9.88,30.49,11.27,38.17,11.6,0-.61-.1-22.43-.1-23.21"/></svg>
